<svg xmlns="http://www.w3.org/2000/svg" viewBox="0 0 730.47 612.64"><defs><style>.cls-1{fill:#fbf6c1;}.cls-2{fill:#fff;}</style></defs><g id="Capa_2" data-name="Capa 2"><g id="Capa_2-2" data-name="Capa 2"><path class="cls-1" d="M516.4,152.59A170.26,170.26,0,0,1,594.6,9.26,221.4,221.4,0,0,0,531.11,0C408.91,0,309.85,99.06,309.85,221.26s99.06,221.26,221.26,221.26A221.28,221.28,0,0,0,730.47,317.35,170.54,170.54,0,0,1,516.4,152.59Z"/><path class="cls-2" d="M730.47,448.92A163.81,163.81,0,0,0,515.69,293.33c-33-92.57-121.37-158.85-225.27-158.85-132,0-239.08,107-239.08,239.08a238.81,238.81,0,0,0,10,68.46,87.29,87.29,0,0,0,26,170.62H578v-.39A163.73,163.73,0,0,0,730.47,448.92Z"/></g></g></svg>