<svg xmlns="http://www.w3.org/2000/svg" viewBox="0 0 872.08 566.86"><defs><style>.cls-1{fill:#fbf6c1;}.cls-2{fill:#fff;opacity:0.7;}</style></defs><g id="Capa_2" data-name="Capa 2"><g id="Capa_2-2" data-name="Capa 2"><path class="cls-1" d="M436,165.91A185.15,185.15,0,0,1,521,10.07,240.58,240.58,0,0,0,452,0C319.14,0,211.44,107.71,211.44,240.57S319.14,481.14,452,481.14A240.59,240.59,0,0,0,668.77,345a185.81,185.81,0,0,1-47.48,6.15C519,351.19,436,268.23,436,165.91Z"/><path class="cls-2" d="M200.05,154.85v.31c0-10.19,10.53-18.77,23.51-18.77H516.47c13,0,23.51,8.27,23.51,18.46v39.24c0,10.2,10.53,18.47,23.51,18.47h4.41c13,0,23.51,8.26,23.51,18.46v41.55c0,10.2,10.53,18.47,23.52,18.47H848.57c13,0,23.51,8.26,23.51,18.46v16.86c0,10.2-10.52,18.47-23.51,18.47H691.06c-13,0-23.51,8.27-23.51,18.46v66.23c0,10.2,10.53,18.47,23.51,18.47h35.09c13,0,23.52,8.27,23.52,18.46v15c0,10.2-10.53,18.46-23.52,18.46H664.89c-13,0-23.51,8.27-23.51,18.47v30c0,10.2-10.53,18.47-23.52,18.47H264.58c-13,0-23.51-8.27-23.51-18.47V519.54c0-10.2-10.53-18.46-23.51-18.46H162.37c-13,0-23.51-8.27-23.51-18.47V442.22c0-10.2-10.53-18.47-23.51-18.47l-91.84.05c-13,0-23.51-8.27-23.51-18.47V388c0-10.2,10.53-18.46,23.51-18.46l131.79-1.05c13,0,23.51-8.27,23.51-18.46V269.26c0-10.2-10.53-18.47-23.51-18.47l-107.59,1c-13,0-23.51-8.27-23.51-18.47v-3.46c0-10.2,10.53-18.47,23.51-18.47H175.55c12.8,0,23.24-8,23.5-18.08Z"/></g></g></svg>