<svg xmlns="http://www.w3.org/2000/svg" viewBox="0 0 872.08 566.57"><defs><style>.cls-1{fill:#ffe907;}.cls-2{fill:#fff;opacity:0.7;}</style></defs><g id="Capa_2" data-name="Capa 2"><g id="Capa_2-2" data-name="Capa 2"><circle class="cls-1" cx="451.02" cy="240.04" r="240.04"/><path class="cls-2" d="M200.05,154.57v.31c0-10.2,10.53-18.78,23.51-18.78H516.47c13,0,23.51,8.27,23.51,18.47v39.24c0,10.19,10.53,18.46,23.51,18.46h4.41c13,0,23.51,8.27,23.51,18.47v41.54c0,10.2,10.53,18.47,23.52,18.47H848.57c13,0,23.51,8.27,23.51,18.46v16.87c0,10.2-10.52,18.46-23.51,18.46H691.06c-13,0-23.51,8.27-23.51,18.47v66.23c0,10.2,10.53,18.46,23.51,18.46h35.09c13,0,23.52,8.27,23.52,18.47v15c0,10.2-10.53,18.47-23.52,18.47H664.89c-13,0-23.51,8.26-23.51,18.46v30c0,10.2-10.53,18.46-23.52,18.46H264.58c-13,0-23.51-8.26-23.51-18.46V519.26c0-10.2-10.53-18.47-23.51-18.47H162.37c-13,0-23.51-8.27-23.51-18.46v-40.4c0-10.19-10.53-18.46-23.51-18.46l-91.84,0c-13,0-23.51-8.27-23.51-18.46V387.74c0-10.2,10.53-18.47,23.51-18.47l131.79-1c13,0,23.51-8.27,23.51-18.47V269c0-10.19-10.53-18.46-23.51-18.46l-107.59,1c-13,0-23.51-8.27-23.51-18.46v-3.47c0-10.19,10.53-18.46,23.51-18.46H175.55c12.8,0,23.24-8,23.5-18.09Z"/></g></g></svg>