<svg xmlns="http://www.w3.org/2000/svg" viewBox="0 0 730.47 876.77"><defs><style>.cls-1{fill:#13a9e2;}.cls-2{fill:#ffe907;}.cls-3{fill:#fff;}</style></defs><g id="Capa_2" data-name="Capa 2"><g id="Capa_2-2" data-name="Capa 2"><rect class="cls-1" x="221.53" y="660.47" width="62.47" height="96.14" rx="31.23"/><rect class="cls-1" x="334.05" y="660.47" width="62.47" height="150.73" rx="31.23"/><rect class="cls-1" x="222.73" y="776.61" width="61.07" height="61.07" rx="30.54"/><rect class="cls-1" x="446.52" y="741.13" width="62.47" height="135.64" rx="31.23" transform="translate(955.51 1617.9) rotate(180)"/><rect class="cls-1" x="447.22" y="660.47" width="61.07" height="61.07" rx="30.54" transform="translate(955.51 1382.01) rotate(-180)"/><circle class="cls-2" cx="509.21" cy="221.26" r="221.26"/><path class="cls-3" d="M730.47,446.75A163.81,163.81,0,0,0,515.69,291.16c-33-92.58-121.37-158.85-225.27-158.85-132,0-239.08,107-239.08,239.08a238.81,238.81,0,0,0,10,68.46,87.29,87.29,0,0,0,26,170.62H578v-.39A163.73,163.73,0,0,0,730.47,446.75Z"/></g></g></svg>