<svg xmlns="http://www.w3.org/2000/svg" viewBox="0 0 856.2 824.39"><defs><style>.cls-1{fill:#f8f7f7;}.cls-2{fill:#fff;}.cls-3{fill:#13a9e2;}</style></defs><g id="Capa_2" data-name="Capa 2"><g id="Capa_2-2" data-name="Capa 2"><path class="cls-1" d="M856.2,314.44A163.81,163.81,0,0,0,641.42,158.86C608.45,66.28,520,0,416.15,0c-132,0-239.08,107-239.08,239.08a239.1,239.1,0,0,0,10,68.46,87.29,87.29,0,0,0,26,170.62H703.74v-.39A163.73,163.73,0,0,0,856.2,314.44Z"/><path class="cls-2" d="M730.47,394.37A163.79,163.79,0,0,0,515.69,238.79c-33-92.58-121.37-158.86-225.27-158.86-132,0-239.08,107-239.08,239.08a238.76,238.76,0,0,0,10,68.46,87.29,87.29,0,0,0,26,170.62H578v-.39A163.72,163.72,0,0,0,730.47,394.37Z"/><rect class="cls-3" x="221.51" y="608.09" width="62.47" height="96.14" rx="31.23"/><rect class="cls-3" x="334.03" y="608.09" width="62.47" height="150.73" rx="31.23"/><rect class="cls-3" x="222.71" y="724.23" width="61.07" height="61.07" rx="30.54"/><rect class="cls-3" x="446.49" y="688.76" width="62.47" height="135.64" rx="31.23" transform="translate(955.46 1513.15) rotate(-180)"/><rect class="cls-3" x="447.19" y="608.09" width="61.07" height="61.07" rx="30.54" transform="translate(955.46 1277.26) rotate(-180)"/></g></g></svg>