<svg xmlns="http://www.w3.org/2000/svg" viewBox="0 0 500.81 549.98"><defs><style>.cls-1,.cls-2,.cls-3{fill:none;stroke:#fff;stroke-miterlimit:10;}.cls-1{stroke-width:47.39px;}.cls-2,.cls-3{stroke-linecap:round;}.cls-2{stroke-width:32.23px;}.cls-3{stroke-width:34.12px;}</style></defs><g id="Capa_2" data-name="Capa 2"><g id="Capa_2-2" data-name="Capa 2"><circle class="cls-1" cx="246.94" cy="274.93" r="65.53"/><line class="cls-2" x1="250.73" y1="209.52" x2="250.73" y2="16.11"/><polyline class="cls-3" points="160.43 54.03 250.73 134.46 335.1 54.03"/><line class="cls-2" x1="196.87" y1="244.73" x2="29.03" y2="148.62"/><polyline class="cls-3" points="17.06 245.82 131.73 207.43 103.86 94.24"/><line class="cls-2" x1="194.79" y1="305.93" x2="25.93" y2="400.24"/><polyline class="cls-3" points="103.06 460.59 129.25 342.53 17.89 308.09"/><line class="cls-2" x1="247.76" y1="340.46" x2="247.76" y2="533.87"/><polyline class="cls-3" points="338.06 495.96 247.76 415.53 163.39 495.96"/><line class="cls-2" x1="304.11" y1="303.61" x2="467.01" y2="407.86"/><polyline class="cls-3" points="483.75 311.37 367.33 344.07 389.6 458.49"/><line class="cls-2" x1="304.11" y1="241.25" x2="470.79" y2="143.16"/><polyline class="cls-3" points="392.32 84.56 368.8 203.18 480.91 235.1"/></g></g></svg>