<svg xmlns="http://www.w3.org/2000/svg" viewBox="0 0 856.2 823.7"><defs><style>.cls-1{fill:#f8f7f7;}.cls-2{fill:#fff;}.cls-3{fill:#ffe907;}</style></defs><g id="Capa_2" data-name="Capa 2"><g id="Capa_2-2" data-name="Capa 2"><path class="cls-1" d="M856.2,314.44A163.81,163.81,0,0,0,641.42,158.86C608.45,66.28,520,0,416.15,0c-132,0-239.08,107-239.08,239.08a239.1,239.1,0,0,0,10,68.46,87.29,87.29,0,0,0,26,170.62H703.74v-.39A163.73,163.73,0,0,0,856.2,314.44Z"/><path class="cls-2" d="M730.47,394.37A163.79,163.79,0,0,0,515.69,238.79c-33-92.58-121.37-158.86-225.27-158.86-132,0-239.08,107-239.08,239.08a238.76,238.76,0,0,0,10,68.46,87.29,87.29,0,0,0,26,170.62H578v-.39A163.72,163.72,0,0,0,730.47,394.37Z"/><path class="cls-3" d="M405.62,679.14h-18c-15.66,0-8.24-11.77-8.23-11.79L406,625.22a11.17,11.17,0,0,0-9.44-17.13H327a11.18,11.18,0,0,0-10.08,6.36L269,715.12a11.16,11.16,0,0,0,10.08,16h26.58c1.65,0,10.1.83,4.94,13.31l-26.79,64.77a10.49,10.49,0,0,0,7.5,14.28h0a11.16,11.16,0,0,0,10.57-3.38L413.14,698.56A11.17,11.17,0,0,0,405.62,679.14Z"/><path class="cls-3" d="M211,693.15H199.82c-9.69,0-5.1-7.28-5.1-7.29l16.48-26.07a6.91,6.91,0,0,0-5.84-10.6h-43a6.92,6.92,0,0,0-6.24,3.94l-29.67,62.28a6.9,6.9,0,0,0,6.23,9.88h16.45c1,0,6.25.52,3.06,8.24l-16.58,40.08a6.49,6.49,0,0,0,4.64,8.83h0a6.88,6.88,0,0,0,6.54-2.09l68.86-75.18A6.91,6.91,0,0,0,211,693.15Z"/><path class="cls-3" d="M552,693.15H540.9c-9.69,0-5.1-7.28-5.1-7.29l16.48-26.07a6.91,6.91,0,0,0-5.84-10.6h-43a6.92,6.92,0,0,0-6.24,3.94l-29.67,62.28a6.9,6.9,0,0,0,6.23,9.88h16.45c1,0,6.25.52,3.06,8.24l-16.58,40.08a6.49,6.49,0,0,0,4.64,8.83h0a6.9,6.9,0,0,0,6.55-2.09l68.85-75.18A6.91,6.91,0,0,0,552,693.15Z"/></g></g></svg>