<svg width="175" height="175" viewBox="0 0 175 175" fill="none" xmlns="http://www.w3.org/2000/svg">
<path d="M43.75 43.75L48.7812 44.1875C51.0866 35.6849 56.1279 28.1782 63.1263 22.8272C70.1246 17.4763 78.6904 14.5792 87.5 14.5833C98.1363 14.5833 108.337 18.8086 115.858 26.3296C123.379 33.8506 127.604 44.0512 127.604 54.6875L127.021 61.6146C130.375 59.5 134.312 58.3333 138.542 58.3333C141.414 58.3333 144.259 58.8992 146.913 59.9985C149.567 61.0978 151.978 62.7091 154.01 64.7404C156.041 66.7717 157.652 69.1831 158.752 71.8371C159.851 74.4911 160.417 77.3357 160.417 80.2084C160.417 86.01 158.112 91.574 154.01 95.6763C149.907 99.7787 144.343 102.083 138.542 102.083H43.75C36.0145 102.083 28.5958 99.0104 23.126 93.5406C17.6562 88.0708 14.5833 80.6522 14.5833 72.9167C14.5833 65.1812 17.6562 57.7625 23.126 52.2927C28.5958 46.8229 36.0145 43.75 43.75 43.75ZM43.75 58.3333C39.8822 58.3333 36.1729 59.8698 33.438 62.6047C30.7031 65.3396 29.1666 69.0489 29.1666 72.9167C29.1666 76.7844 30.7031 80.4938 33.438 83.2287C36.1729 85.9636 39.8822 87.5 43.75 87.5H138.542C140.476 87.5 142.33 86.7318 143.698 85.3643C145.065 83.9969 145.833 82.1422 145.833 80.2084C145.833 78.2745 145.065 76.4198 143.698 75.0524C142.33 73.6849 140.476 72.9167 138.542 72.9167H113.021V54.6875C113.021 47.919 110.332 41.4276 105.546 36.6416C100.76 31.8555 94.2685 29.1667 87.5 29.1667C80.7314 29.1667 74.2401 31.8555 69.454 36.6416C64.6679 41.4276 61.9791 47.919 61.9791 54.6875V58.3333H43.75ZM131.25 131.25H29.1666C27.2328 131.25 25.3781 130.482 24.0107 129.114C22.6432 127.747 21.875 125.892 21.875 123.958C21.875 122.024 22.6432 120.17 24.0107 118.802C25.3781 117.435 27.2328 116.667 29.1666 116.667H131.25C137.052 116.667 142.616 118.971 146.718 123.074C150.82 127.176 153.125 132.74 153.125 138.542C153.125 144.343 150.82 149.907 146.718 154.01C142.616 158.112 137.052 160.417 131.25 160.417C125.198 160.417 119.729 157.938 115.792 154C113.021 151.156 113.021 146.562 115.792 143.719C116.466 143.043 117.267 142.507 118.15 142.141C119.032 141.775 119.977 141.586 120.932 141.586C121.887 141.586 122.833 141.775 123.715 142.141C124.597 142.507 125.398 143.043 126.073 143.719C127.385 145.031 129.208 145.833 131.25 145.833C133.184 145.833 135.039 145.065 136.406 143.698C137.773 142.33 138.542 140.476 138.542 138.542C138.542 136.608 137.773 134.753 136.406 133.386C135.039 132.018 133.184 131.25 131.25 131.25Z" fill="#0466C8"/>
</svg>
