<svg width="75" height="75" viewBox="0 0 75 75" fill="none" xmlns="http://www.w3.org/2000/svg">
<path d="M55.0219 32.7961L39.4852 8.05547C39.2597 7.73908 38.962 7.48116 38.6166 7.3032C38.2713 7.12523 37.8885 7.03238 37.5 7.03238C37.1115 7.03238 36.7287 7.12523 36.3834 7.3032C36.038 7.48116 35.7403 7.73908 35.5148 8.05547L19.9078 32.9133C17.7396 36.4108 16.5318 40.4181 16.4062 44.5312C16.4063 50.1257 18.6286 55.4909 22.5845 59.4468C26.5403 63.4026 31.9056 65.625 37.5 65.625C43.0944 65.625 48.4597 63.4026 52.4155 59.4468C56.3714 55.4909 58.5938 50.1257 58.5938 44.5312C58.459 40.373 57.2267 36.3243 55.0219 32.7961ZM37.5 60.9375C33.1505 60.9319 28.9808 59.2016 25.9052 56.1261C22.8296 53.0505 21.0993 48.8807 21.0938 44.5312C21.2183 41.2537 22.2028 38.0666 23.9484 35.2898L26.1398 31.7977L49.7508 55.4086C48.2173 57.146 46.332 58.5376 44.22 59.4912C42.108 60.4448 39.8173 60.9386 37.5 60.9398V60.9375Z" fill="#0466C8"/>
</svg>
