<svg width="75" height="75" viewBox="0 0 75 75" fill="none" xmlns="http://www.w3.org/2000/svg">
<path d="M59.2 34.725C57.8344 23.9688 48.625 15.625 37.5 15.625C28.8875 15.625 21.4062 20.6594 17.9906 28.5937C11.2781 30.6 6.25 36.9375 6.25 43.75C6.25 52.3656 13.2594 59.375 21.875 59.375H56.25C63.1437 59.375 68.75 53.7687 68.75 46.875C68.7452 44.0738 67.802 41.3549 66.0709 39.1526C64.3399 36.9503 61.9208 35.3914 59.2 34.725ZM56.25 53.125H21.875C16.7062 53.125 12.5 48.9188 12.5 43.75C12.5 39.3625 16.2469 35.1375 20.8531 34.3281L22.6687 34.0094L23.2687 32.2656C25.4656 25.8562 30.9219 21.875 37.5 21.875C46.1156 21.875 53.125 28.8844 53.125 37.5V40.625H56.25C59.6969 40.625 62.5 43.4281 62.5 46.875C62.5 50.3219 59.6969 53.125 56.25 53.125Z" fill="#0466C8"/>
</svg>
