<svg width="75" height="75" viewBox="0 0 75 75" fill="none" xmlns="http://www.w3.org/2000/svg">
<path d="M25.6875 16.9687C25.6875 13.8607 26.9222 10.88 29.1199 8.68234C31.3175 6.48465 34.2983 5.25 37.4063 5.25C40.5143 5.25 43.495 6.48465 45.6927 8.68234C47.8904 10.88 49.125 13.8607 49.125 16.9687V42.5156C51.3859 44.8232 52.9153 47.7469 53.5213 50.9202C54.1273 54.0934 53.7829 57.3749 52.5314 60.3533C51.2799 63.3316 49.177 65.8741 46.4862 67.6621C43.7955 69.4501 40.6368 70.4039 37.4063 70.4039C34.1757 70.4039 31.017 69.4501 28.3263 67.6621C25.6356 65.8741 23.5326 63.3316 22.2811 60.3533C21.0296 57.3749 20.6852 54.0934 21.2912 50.9202C21.8972 47.7469 23.4266 44.8232 25.6875 42.5156V16.9687ZM37.4063 9.9375C35.5415 9.9375 33.753 10.6783 32.4344 11.9969C31.1158 13.3155 30.375 15.1039 30.375 16.9687V44.5641L29.5969 45.2672C27.8277 46.8493 26.5806 48.9314 26.0207 51.2378C25.4607 53.5442 25.6143 55.9663 26.4611 58.1835C27.3079 60.4008 28.808 62.3086 30.7628 63.6546C32.7177 65.0006 35.0352 65.7213 37.4086 65.7213C39.782 65.7213 42.0995 65.0006 44.0544 63.6546C46.0092 62.3086 47.5093 60.4008 48.3561 58.1835C49.2029 55.9663 49.3565 53.5442 48.7965 51.2378C48.2366 48.9314 46.9895 46.8493 45.2203 45.2672L44.4375 44.5594V16.9687C44.4375 15.1039 43.6967 13.3155 42.3781 11.9969C41.0595 10.6783 39.2711 9.9375 37.4063 9.9375ZM39.75 41.1562C39.75 40.5346 39.5031 39.9385 39.0635 39.499C38.624 39.0594 38.0279 38.8125 37.4063 38.8125C36.7847 38.8125 36.1885 39.0594 35.749 39.499C35.3094 39.9385 35.0625 40.5346 35.0625 41.1562V47.8359C33.4987 48.3888 32.1807 49.4767 31.3415 50.9074C30.5023 52.338 30.1958 54.0193 30.4763 55.6541C30.7567 57.2888 31.6061 58.7718 32.8742 59.8409C34.1424 60.91 35.7476 61.4963 37.4063 61.4963C39.0649 61.4963 40.6701 60.91 41.9383 59.8409C43.2064 58.7718 44.0558 57.2888 44.3362 55.6541C44.6167 54.0193 44.3103 52.338 43.471 50.9074C42.6318 49.4767 41.3138 48.3888 39.75 47.8359V41.1562Z" fill="#0466C8"/>
</svg>
